<svg width="370" height="345" viewBox="0 0 370 345" fill="none" xmlns="http://www.w3.org/2000/svg">
<ellipse cx="60" cy="50" rx="60" ry="50" transform="matrix(0.939693 -0.34202 -0.34202 -0.939693 60.202 120.012)" fill="#5DA26C"/>
<circle cx="184" cy="175" r="170" fill="#5DA26C"/>
<ellipse cx="273.483" cy="52.5058" rx="60" ry="50" transform="rotate(-160 273.483 52.5058)" fill="#5DA26C"/>
<ellipse cx="48.3103" cy="41.8357" rx="48.3103" ry="41.8357" transform="matrix(0.70996 -0.704242 0.70996 0.704242 207 61.0443)" fill="#EDE7A4"/>
<ellipse cx="38.4985" cy="17.8596" rx="38.4985" ry="17.8596" transform="matrix(0.987885 -0.155189 0.157689 0.987489 229.954 41.1645)" fill="#212121"/>
<path d="M254.593 70.91C259.355 65.8452 265.748 62.5861 272.672 61.6941C279.597 60.8022 286.617 62.3333 292.526 66.0236L276.537 91.2063L254.593 70.91Z" fill="#EDE7A4"/>
<ellipse cx="13.9995" cy="13.8908" rx="13.9995" ry="13.8908" transform="matrix(0.987885 -0.155189 0.157689 0.987489 229.23 49.3132)" fill="#212121"/>
<ellipse cx="13.9995" cy="13.8908" rx="13.9995" ry="13.8908" transform="matrix(0.987885 -0.155189 0.157689 0.987489 282.731 41.9131)" fill="#212121"/>
<ellipse cx="48.3103" cy="41.8357" rx="48.3103" ry="41.8357" transform="matrix(-0.70996 -0.704242 -0.70996 0.704242 163 61.0443)" fill="#EDE7A4"/>
<ellipse cx="38.4985" cy="17.8596" rx="38.4985" ry="17.8596" transform="matrix(-0.987885 -0.155189 -0.157689 0.987489 140.046 41.1645)" fill="#212121"/>
<path d="M115.407 70.91C110.645 65.8452 104.252 62.5861 97.3276 61.6941C90.4035 60.8022 83.3825 62.3333 77.4742 66.0236L93.4631 91.2063L115.407 70.91Z" fill="#EDE7A4"/>
<ellipse cx="13.9995" cy="13.8908" rx="13.9995" ry="13.8908" transform="matrix(-0.987885 -0.155189 -0.157689 0.987489 140.77 49.3132)" fill="#212121"/>
<ellipse cx="13.9995" cy="13.8908" rx="13.9995" ry="13.8908" transform="matrix(-0.987885 -0.155189 -0.157689 0.987489 87.2693 41.9131)" fill="#212121"/>
<ellipse cx="184" cy="230" rx="140" ry="115" fill="#B7B7B7"/>
<ellipse cx="29.1803" cy="167.684" rx="26.1803" ry="34.684" fill="#5DA26C"/>
<ellipse cx="6.84594" cy="11.1561" rx="6.84594" ry="11.1561" transform="matrix(0.4869 -0.861887 -0.869853 -0.513258 76.5161 199.836)" fill="#5DA26C"/>
<ellipse cx="6.8275" cy="11.1867" rx="6.8275" ry="11.1867" transform="matrix(-3.75195e-08 -0.99791 -1.00167 2.09202e-09 83.3912 181.668)" fill="#5DA26C"/>
<ellipse cx="6.8275" cy="11.1867" rx="6.8275" ry="11.1867" transform="matrix(0.845613 -0.498955 -0.500835 -0.886554 59.3848 209.906)" fill="#5DA26C"/>
<ellipse cx="26.6134" cy="34.1256" rx="26.6134" ry="34.1256" transform="matrix(0.491863 -0.870672 -0.86125 -0.508181 61.7813 214.027)" fill="#5DA26C"/>
<ellipse cx="21.1922" cy="27.788" rx="21.1922" ry="27.788" transform="matrix(0.491863 -0.870672 -0.86125 -0.508181 57.4875 205.772)" fill="#B7B7B7"/>
<ellipse cx="4.87877" cy="4.92495" rx="4.87877" ry="4.92495" transform="matrix(-0.700051 -0.720806 -0.693487 0.714047 67.3434 198.235)" fill="#B7B7B7"/>
<ellipse cx="4.87877" cy="4.92495" rx="4.87877" ry="4.92495" transform="matrix(-0.700051 -0.720806 -0.693487 0.714047 80.9185 174.206)" fill="#B7B7B7"/>
<ellipse cx="4.87877" cy="4.92495" rx="4.87877" ry="4.92495" transform="matrix(-0.700051 -0.720806 -0.693487 0.714047 78.3297 188.698)" fill="#B7B7B7"/>
<ellipse cx="60" cy="50" rx="60" ry="50" transform="matrix(0.939693 -0.34202 -0.34202 -0.939693 60.202 120.012)" fill="#5DA26C"/>
<ellipse cx="273.483" cy="52.5058" rx="60" ry="50" transform="rotate(-160 273.483 52.5058)" fill="#5DA26C"/>
<ellipse cx="38.0983" cy="53.3355" rx="38.0983" ry="53.3355" transform="matrix(-0.766044 -0.642788 -0.642788 0.766044 340.036 279.685)" fill="#5DA26C"/>
<ellipse cx="9.98164" cy="16.4439" rx="9.98164" ry="16.4439" transform="matrix(-0.763201 -0.640402 -0.645164 0.768877 326.084 253.761)" fill="#5DA26C"/>
<ellipse cx="11.8956" cy="11.7207" rx="11.8956" ry="11.7207" transform="matrix(-0.763201 -0.640402 -0.645164 0.768877 336.243 244.636)" fill="#5DA26C"/>
<ellipse cx="9.98164" cy="16.4439" rx="9.98164" ry="16.4439" transform="matrix(-0.763201 -0.640402 -0.645164 0.768877 326.084 253.761)" fill="#5DA26C"/>
<ellipse cx="11.8956" cy="11.7207" rx="11.8956" ry="11.7207" transform="matrix(-0.763201 -0.640402 -0.645164 0.768877 336.243 244.636)" fill="#5DA26C"/>
<ellipse cx="9.98164" cy="16.4439" rx="9.98164" ry="16.4439" transform="matrix(-0.99935 0.00364827 -0.00364819 1.00064 294.522 235.944)" fill="#5DA26C"/>
<ellipse cx="11.8956" cy="11.7207" rx="11.8956" ry="11.7207" transform="matrix(-0.99935 0.00364827 -0.00364819 1.00064 296.495 222.459)" fill="#5DA26C"/>
<ellipse cx="9.98164" cy="16.4439" rx="9.98164" ry="16.4439" transform="matrix(-0.99935 0.00364827 -0.00364819 1.00064 294.522 235.944)" fill="#5DA26C"/>
<ellipse cx="11.8956" cy="11.7207" rx="11.8956" ry="11.7207" transform="matrix(-0.99935 0.00364827 -0.00364819 1.00064 296.495 222.459)" fill="#5DA26C"/>
<ellipse cx="9.98164" cy="16.4439" rx="9.98164" ry="16.4439" transform="matrix(-0.169943 -0.984801 -0.984801 0.177352 336.374 287.866)" fill="#5DA26C"/>
<ellipse cx="11.8956" cy="11.7207" rx="11.8956" ry="11.7207" transform="matrix(-0.169943 -0.984801 -0.984801 0.177352 349.966 287.372)" fill="#5DA26C"/>
<ellipse cx="9.98164" cy="16.4439" rx="9.98164" ry="16.4439" transform="matrix(-0.169943 -0.984801 -0.984801 0.177352 336.374 287.866)" fill="#5DA26C"/>
<ellipse cx="11.8956" cy="11.7207" rx="11.8956" ry="11.7207" transform="matrix(-0.169943 -0.984801 -0.984801 0.177352 349.966 287.372)" fill="#5DA26C"/>
<ellipse cx="6.73175" cy="11.09" rx="6.73175" ry="11.09" transform="matrix(-0.760791 -0.643264 -0.642314 0.771259 318.86 257.249)" fill="#B7B7B7"/>
<ellipse cx="8.02255" cy="7.90457" rx="8.02255" ry="7.90457" transform="matrix(-0.760791 -0.643264 -0.642314 0.771259 329.824 245.884)" fill="#B7B7B7"/>
<ellipse cx="6.7276" cy="11.0974" rx="6.7276" ry="11.0974" transform="matrix(-0.166372 -0.986063 -0.983501 0.180901 330.254 286.139)" fill="#B7B7B7"/>
<ellipse cx="8.0176" cy="7.90987" rx="8.0176" ry="7.90987" transform="matrix(-0.166372 -0.986063 -0.983501 0.180901 345.898 284.436)" fill="#B7B7B7"/>
<ellipse cx="6.73157" cy="11.0897" rx="6.73157" ry="11.0897" transform="matrix(-0.999356 -8.24064e-05 7.76673e-05 1.00064 291.58 241.968)" fill="#B7B7B7"/>
<ellipse cx="8.02233" cy="7.90435" rx="8.02233" ry="7.90435" transform="matrix(-0.999356 -8.24064e-05 7.76673e-05 1.00064 292.734 226.258)" fill="#B7B7B7"/>
<ellipse cx="31.7406" cy="43.8748" rx="31.7406" ry="43.8748" transform="matrix(-0.766044 -0.642788 -0.642788 0.766044 329.239 282.816)" fill="#B7B7B7"/>
<ellipse cx="29.1803" cy="167.684" rx="26.1803" ry="34.684" fill="#5DA26C"/>
<ellipse cx="6.84594" cy="11.1561" rx="6.84594" ry="11.1561" transform="matrix(0.4869 -0.861887 -0.869853 -0.513258 76.5161 199.836)" fill="#5DA26C"/>
<ellipse cx="6.8275" cy="11.1867" rx="6.8275" ry="11.1867" transform="matrix(-3.75195e-08 -0.99791 -1.00167 2.09202e-09 83.3912 181.668)" fill="#5DA26C"/>
<ellipse cx="6.8275" cy="11.1867" rx="6.8275" ry="11.1867" transform="matrix(0.845613 -0.498955 -0.500835 -0.886554 59.3848 209.906)" fill="#5DA26C"/>
<ellipse cx="26.6134" cy="34.1256" rx="26.6134" ry="34.1256" transform="matrix(0.491863 -0.870672 -0.86125 -0.508181 61.7813 214.027)" fill="#5DA26C"/>
<ellipse cx="21.1922" cy="27.788" rx="21.1922" ry="27.788" transform="matrix(0.491863 -0.870672 -0.86125 -0.508181 57.4875 205.772)" fill="#5DA26C"/>
<ellipse cx="4.87877" cy="4.92495" rx="4.87877" ry="4.92495" transform="matrix(-0.700051 -0.720806 -0.693487 0.714047 67.3434 198.235)" fill="#5DA26C"/>
<ellipse cx="4.87877" cy="4.92495" rx="4.87877" ry="4.92495" transform="matrix(-0.700051 -0.720806 -0.693487 0.714047 80.9185 174.206)" fill="#5DA26C"/>
<ellipse cx="4.87877" cy="4.92495" rx="4.87877" ry="4.92495" transform="matrix(-0.700051 -0.720806 -0.693487 0.714047 78.3297 188.698)" fill="#5DA26C"/>
<ellipse cx="26.1803" cy="34.684" rx="26.1803" ry="34.684" transform="matrix(-1 0 0 1 367 133)" fill="#5DA26C"/>
<ellipse cx="6.84594" cy="11.1561" rx="6.84594" ry="11.1561" transform="matrix(-0.4869 -0.861887 0.869853 -0.513258 293.484 199.836)" fill="#5DA26C"/>
<ellipse cx="297.814" cy="174.855" rx="6.81323" ry="11.2054" transform="scale(0.996247 1.00377) rotate(-90 297.814 174.855)" fill="#5DA26C"/>
<ellipse cx="6.8275" cy="11.1867" rx="6.8275" ry="11.1867" transform="matrix(-0.845613 -0.498955 0.500835 -0.886554 310.615 209.906)" fill="#5DA26C"/>
<ellipse cx="26.6134" cy="34.1256" rx="26.6134" ry="34.1256" transform="matrix(-0.491863 -0.870672 0.86125 -0.508181 308.219 214.027)" fill="#5DA26C"/>
<ellipse cx="21.1922" cy="27.788" rx="21.1922" ry="27.788" transform="matrix(-0.491863 -0.870672 0.86125 -0.508181 312.512 205.772)" fill="#5DA26C"/>
<ellipse cx="4.87877" cy="4.92495" rx="4.87877" ry="4.92495" transform="matrix(0.700051 -0.720806 0.693487 0.714047 302.657 198.235)" fill="#5DA26C"/>
<ellipse cx="4.87877" cy="4.92495" rx="4.87877" ry="4.92495" transform="matrix(0.700051 -0.720806 0.693487 0.714047 289.082 174.206)" fill="#5DA26C"/>
<ellipse cx="4.87877" cy="4.92495" rx="4.87877" ry="4.92495" transform="matrix(0.700051 -0.720806 0.693487 0.714047 291.67 188.698)" fill="#5DA26C"/>
<ellipse cx="48.3103" cy="41.8357" rx="48.3103" ry="41.8357" transform="matrix(-0.70996 -0.704242 -0.70996 0.704242 167 61.0443)" fill="#EDE7A4"/>
<ellipse cx="38.4985" cy="17.8596" rx="38.4985" ry="17.8596" transform="matrix(-1 1.3337e-08 -0.00253156 0.999997 141.466 35)" fill="#212121"/>
<path d="M121.743 68.2087C116.253 63.9442 109.431 61.7169 102.452 61.9103C95.4734 62.1037 88.7751 64.7057 83.5111 69.2683L103.214 91.6646L121.743 68.2087Z" fill="#EDE7A4"/>
<ellipse cx="13.9995" cy="13.8908" rx="13.9995" ry="13.8908" transform="matrix(-1 1.3337e-08 -0.00253156 0.999997 143.447 42.9376)" fill="#212121"/>
<ellipse cx="13.9995" cy="13.8908" rx="13.9995" ry="13.8908" transform="matrix(-1 1.3337e-08 -0.00253156 0.999997 89.4459 43.9298)" fill="#212121"/>
<ellipse cx="48.3103" cy="41.8357" rx="48.3103" ry="41.8357" transform="matrix(0.70996 -0.704242 0.70996 0.704242 207 66.0443)" fill="#EDE7A4"/>
<ellipse cx="38.4985" cy="17.8596" rx="38.4985" ry="17.8596" transform="matrix(1 1.3337e-08 0.00253157 0.999997 233 40)" fill="#212121"/>
<path d="M252.723 73.2087C258.214 68.9442 265.036 66.7169 272.014 66.9103C278.993 67.1037 285.691 69.7057 290.955 74.2683L271.252 96.6646L252.723 73.2087Z" fill="#EDE7A4"/>
<ellipse cx="13.9995" cy="13.8908" rx="13.9995" ry="13.8908" transform="matrix(1 1.3337e-08 0.00253157 0.999997 231.02 47.9376)" fill="#212121"/>
<ellipse cx="13.9995" cy="13.8908" rx="13.9995" ry="13.8908" transform="matrix(1 1.3337e-08 0.00253157 0.999997 285.021 48.9298)" fill="#212121"/>
<ellipse cx="95.1855" cy="296.053" rx="38.0983" ry="53.3355" transform="rotate(-40 95.1855 296.053)" fill="#5DA26C"/>
<ellipse cx="63.8971" cy="260.012" rx="9.9446" ry="16.5047" transform="matrix(0.766044 -0.638043 0.647568 0.766044 -153.426 101.6)" fill="#5DA26C"/>
<ellipse cx="52.1515" cy="246.03" rx="11.8514" ry="11.764" transform="matrix(0.766044 -0.638043 0.647568 0.766044 -147.12 90.835)" fill="#5DA26C"/>
<ellipse cx="63.8971" cy="260.012" rx="9.9446" ry="16.5047" transform="matrix(0.766044 -0.638043 0.647568 0.766044 -153.426 101.6)" fill="#5DA26C"/>
<ellipse cx="52.1515" cy="246.03" rx="11.8514" ry="11.764" transform="matrix(0.766044 -0.638043 0.647568 0.766044 -147.12 90.835)" fill="#5DA26C"/>
<ellipse cx="9.98164" cy="16.4439" rx="9.98164" ry="16.4439" transform="matrix(0.99935 0.00364827 0.00364819 1.00064 77.2312 235.944)" fill="#5DA26C"/>
<ellipse cx="11.8956" cy="11.7207" rx="11.8956" ry="11.7207" transform="matrix(0.99935 0.00364827 0.00364819 1.00064 75.259 222.459)" fill="#5DA26C"/>
<ellipse cx="9.98164" cy="16.4439" rx="9.98164" ry="16.4439" transform="matrix(0.99935 0.00364827 0.00364819 1.00064 77.2312 235.944)" fill="#5DA26C"/>
<ellipse cx="11.8956" cy="11.7207" rx="11.8956" ry="11.7207" transform="matrix(0.99935 0.00364827 0.00364819 1.00064 75.259 222.459)" fill="#5DA26C"/>
<ellipse cx="9.98164" cy="16.4439" rx="9.98164" ry="16.4439" transform="matrix(0.169943 -0.984801 0.984801 0.177352 35.3799 287.866)" fill="#5DA26C"/>
<ellipse cx="11.8956" cy="11.7207" rx="11.8956" ry="11.7207" transform="matrix(0.169943 -0.984801 0.984801 0.177352 21.7877 287.372)" fill="#5DA26C"/>
<ellipse cx="9.98164" cy="16.4439" rx="9.98164" ry="16.4439" transform="matrix(0.169943 -0.984801 0.984801 0.177352 35.3799 287.866)" fill="#5DA26C"/>
<ellipse cx="11.8956" cy="11.7207" rx="11.8956" ry="11.7207" transform="matrix(0.169943 -0.984801 0.984801 0.177352 21.7877 287.372)" fill="#5DA26C"/>
<ellipse cx="6.73175" cy="11.09" rx="6.73175" ry="11.09" transform="matrix(0.760791 -0.643264 0.642314 0.771259 52.894 257.249)" fill="#B7B7B7"/>
<ellipse cx="8.02255" cy="7.90457" rx="8.02255" ry="7.90457" transform="matrix(0.760791 -0.643264 0.642314 0.771259 41.9296 245.884)" fill="#B7B7B7"/>
<ellipse cx="6.7276" cy="11.0974" rx="6.7276" ry="11.0974" transform="matrix(0.166372 -0.986063 0.983501 0.180901 41.4997 286.139)" fill="#B7B7B7"/>
<ellipse cx="8.0176" cy="7.90987" rx="8.0176" ry="7.90987" transform="matrix(0.166372 -0.986063 0.983501 0.180901 25.8559 284.436)" fill="#B7B7B7"/>
<ellipse cx="6.73157" cy="11.0897" rx="6.73157" ry="11.0897" transform="matrix(0.999356 -8.24064e-05 -7.76673e-05 1.00064 80.1736 241.968)" fill="#B7B7B7"/>
<ellipse cx="8.02233" cy="7.90435" rx="8.02233" ry="7.90435" transform="matrix(0.999356 -8.24064e-05 -7.76673e-05 1.00064 79.019 226.258)" fill="#B7B7B7"/>
<ellipse cx="95.0317" cy="296.024" rx="31.7406" ry="43.8748" transform="rotate(-40 95.0317 296.024)" fill="#B7B7B7"/>
</svg>
