<svg width="400" height="347" viewBox="0 0 400 347" fill="none" xmlns="http://www.w3.org/2000/svg">
<circle cx="214.343" cy="177" r="170" fill="#5DA26C"/>
<ellipse cx="303.826" cy="54.5058" rx="60" ry="50" transform="rotate(-160 303.826 54.5058)" fill="#5DA26C"/>
<ellipse cx="48.3103" cy="41.8357" rx="48.3103" ry="41.8357" transform="matrix(0.70996 -0.704242 0.70996 0.704242 237.343 63.0443)" fill="#EDE7A4"/>
<ellipse cx="38.4985" cy="17.8596" rx="38.4985" ry="17.8596" transform="matrix(0.866025 -0.5 0.502191 0.864757 255.464 56.1086)" fill="#212121"/>
<path d="M289.15 75.0064C291.772 68.5681 296.566 63.2282 302.707 59.9064C308.847 56.5845 315.949 55.4889 322.789 56.8081L316.924 86.0555L289.15 75.0064Z" fill="#EDE7A4"/>
<ellipse cx="13.9995" cy="13.8908" rx="13.9995" ry="13.8908" transform="matrix(0.866025 -0.5 0.502191 0.864757 257.718 63.9728)" fill="#212121"/>
<ellipse cx="13.9995" cy="13.8908" rx="13.9995" ry="13.8908" transform="matrix(0.866025 -0.5 0.502191 0.864757 304.98 37.8317)" fill="#212121"/>
<ellipse cx="60" cy="50" rx="60" ry="50" transform="matrix(0.939693 -0.34202 -0.34202 -0.939693 90.545 122.012)" fill="#5DA26C"/>
<ellipse cx="48.3103" cy="41.8357" rx="48.3103" ry="41.8357" transform="matrix(-0.70996 -0.704242 -0.70996 0.704242 193.343 63.0443)" fill="#EDE7A4"/>
<ellipse cx="38.4985" cy="17.8596" rx="38.4985" ry="17.8596" transform="matrix(-0.866025 -0.5 -0.502191 0.864757 174.909 56.1086)" fill="#212121"/>
<path d="M141.223 75.0064C138.601 68.5681 133.807 63.2282 127.666 59.9064C121.526 56.5845 114.424 55.4889 107.584 56.8081L113.449 86.0555L141.223 75.0064Z" fill="#EDE7A4"/>
<ellipse cx="13.9995" cy="13.8908" rx="13.9995" ry="13.8908" transform="matrix(-0.866025 -0.5 -0.502191 0.864757 172.655 63.9728)" fill="#212121"/>
<ellipse cx="13.9995" cy="13.8908" rx="13.9995" ry="13.8908" transform="matrix(-0.866025 -0.5 -0.502191 0.864757 125.393 37.8317)" fill="#212121"/>
<ellipse cx="214.343" cy="232" rx="140" ry="115" fill="#B7B7B7"/>
<ellipse cx="126.86" cy="296.772" rx="38.0983" ry="53.3355" transform="rotate(-60 126.86 296.772)" fill="#5DA26C"/>
<ellipse cx="85.1316" cy="273.606" rx="9.9446" ry="16.5047" transform="matrix(0.5 -0.859633 0.872466 0.5 -196.146 209.985)" fill="#5DA26C"/>
<ellipse cx="69.3124" cy="264.485" rx="11.8514" ry="11.764" transform="matrix(0.5 -0.859633 0.872466 0.5 -196.098 191.826)" fill="#5DA26C"/>
<ellipse cx="85.1316" cy="273.606" rx="9.9446" ry="16.5047" transform="matrix(0.5 -0.859633 0.872466 0.5 -196.146 209.985)" fill="#5DA26C"/>
<ellipse cx="69.3124" cy="264.485" rx="11.8514" ry="11.764" transform="matrix(0.5 -0.859633 0.872466 0.5 -196.098 191.826)" fill="#5DA26C"/>
<ellipse cx="9.98164" cy="16.4439" rx="9.98164" ry="16.4439" transform="matrix(0.940329 -0.338369 0.345666 0.939043 89.4301 246.429)" fill="#5DA26C"/>
<ellipse cx="11.8956" cy="11.7207" rx="11.8956" ry="11.7207" transform="matrix(0.940329 -0.338369 0.345666 0.939043 82.9645 234.432)" fill="#5DA26C"/>
<ellipse cx="9.98164" cy="16.4439" rx="9.98164" ry="16.4439" transform="matrix(0.940329 -0.338369 0.345666 0.939043 89.4301 246.429)" fill="#5DA26C"/>
<ellipse cx="11.8956" cy="11.7207" rx="11.8956" ry="11.7207" transform="matrix(0.940329 -0.338369 0.345666 0.939043 82.9645 234.432)" fill="#5DA26C"/>
<ellipse cx="9.98164" cy="16.4439" rx="9.98164" ry="16.4439" transform="matrix(-0.177128 -0.983534 0.986068 -0.170166 67.861 309.534)" fill="#5DA26C"/>
<ellipse cx="11.8956" cy="11.7207" rx="11.8956" ry="11.7207" transform="matrix(-0.177128 -0.983534 0.986068 -0.170166 54.9196 313.719)" fill="#5DA26C"/>
<ellipse cx="9.98164" cy="16.4439" rx="9.98164" ry="16.4439" transform="matrix(-0.177128 -0.983534 0.986068 -0.170166 67.861 309.534)" fill="#5DA26C"/>
<ellipse cx="11.8956" cy="11.7207" rx="11.8956" ry="11.7207" transform="matrix(-0.177128 -0.983534 0.986068 -0.170166 54.9196 313.719)" fill="#5DA26C"/>
<ellipse cx="6.73175" cy="11.09" rx="6.73175" ry="11.09" transform="matrix(0.4949 -0.864676 0.867364 0.505062 73.8473 274.773)" fill="#B7B7B7"/>
<ellipse cx="8.02255" cy="7.90457" rx="8.02255" ry="7.90457" transform="matrix(0.4949 -0.864676 0.867364 0.505062 59.6571 267.844)" fill="#B7B7B7"/>
<ellipse cx="6.7276" cy="11.0974" rx="6.7276" ry="11.0974" transform="matrix(-0.180915 -0.983499 0.986061 -0.166386 73.0209 305.818)" fill="#B7B7B7"/>
<ellipse cx="8.0176" cy="7.90987" rx="8.0176" ry="7.90987" transform="matrix(-0.180915 -0.983499 0.986061 -0.166386 57.7383 309.569)" fill="#B7B7B7"/>
<ellipse cx="6.73157" cy="11.0897" rx="6.73157" ry="11.0897" transform="matrix(0.93906 -0.341877 0.342167 0.940323 94.2551 251.083)" fill="#B7B7B7"/>
<ellipse cx="8.02233" cy="7.90435" rx="8.02233" ry="7.90435" transform="matrix(0.93906 -0.341877 0.342167 0.940323 87.7971 236.716)" fill="#B7B7B7"/>
<ellipse cx="126.705" cy="296.798" rx="31.7406" ry="43.8748" transform="rotate(-60 126.705 296.798)" fill="#B7B7B7"/>
<ellipse cx="38.0983" cy="53.3355" rx="38.0983" ry="53.3355" transform="matrix(-0.5 -0.866025 -0.866025 0.5 366.819 306.099)" fill="#5DA26C"/>
<ellipse cx="9.98164" cy="16.4439" rx="9.98164" ry="16.4439" transform="matrix(-0.498144 -0.862811 -0.869228 0.501849 362.574 276.966)" fill="#5DA26C"/>
<ellipse cx="11.8956" cy="11.7207" rx="11.8956" ry="11.7207" transform="matrix(-0.498144 -0.862811 -0.869228 0.501849 375.241 271.866)" fill="#5DA26C"/>
<ellipse cx="9.98164" cy="16.4439" rx="9.98164" ry="16.4439" transform="matrix(-0.498144 -0.862811 -0.869228 0.501849 362.574 276.966)" fill="#5DA26C"/>
<ellipse cx="11.8956" cy="11.7207" rx="11.8956" ry="11.7207" transform="matrix(-0.498144 -0.862811 -0.869228 0.501849 375.241 271.866)" fill="#5DA26C"/>
<ellipse cx="9.98164" cy="16.4439" rx="9.98164" ry="16.4439" transform="matrix(-0.940329 -0.338369 -0.345666 0.939043 339.01 249.429)" fill="#5DA26C"/>
<ellipse cx="11.8956" cy="11.7207" rx="11.8956" ry="11.7207" transform="matrix(-0.940329 -0.338369 -0.345666 0.939043 345.475 237.432)" fill="#5DA26C"/>
<ellipse cx="9.98164" cy="16.4439" rx="9.98164" ry="16.4439" transform="matrix(-0.940329 -0.338369 -0.345666 0.939043 339.01 249.429)" fill="#5DA26C"/>
<ellipse cx="11.8956" cy="11.7207" rx="11.8956" ry="11.7207" transform="matrix(-0.940329 -0.338369 -0.345666 0.939043 345.475 237.432)" fill="#5DA26C"/>
<ellipse cx="9.98164" cy="16.4439" rx="9.98164" ry="16.4439" transform="matrix(0.177128 -0.983534 -0.986068 -0.170166 360.579 312.534)" fill="#5DA26C"/>
<ellipse cx="11.8956" cy="11.7207" rx="11.8956" ry="11.7207" transform="matrix(0.177128 -0.983534 -0.986068 -0.170166 373.52 316.719)" fill="#5DA26C"/>
<ellipse cx="9.98164" cy="16.4439" rx="9.98164" ry="16.4439" transform="matrix(0.177128 -0.983534 -0.986068 -0.170166 360.579 312.534)" fill="#5DA26C"/>
<ellipse cx="11.8956" cy="11.7207" rx="11.8956" ry="11.7207" transform="matrix(0.177128 -0.983534 -0.986068 -0.170166 373.52 316.719)" fill="#5DA26C"/>
<ellipse cx="6.73175" cy="11.09" rx="6.73175" ry="11.09" transform="matrix(-0.4949 -0.864676 -0.867364 0.505062 354.592 277.773)" fill="#B7B7B7"/>
<ellipse cx="8.02255" cy="7.90457" rx="8.02255" ry="7.90457" transform="matrix(-0.4949 -0.864676 -0.867364 0.505062 368.783 270.844)" fill="#B7B7B7"/>
<ellipse cx="6.7276" cy="11.0974" rx="6.7276" ry="11.0974" transform="matrix(0.180915 -0.983499 -0.986061 -0.166386 355.419 308.818)" fill="#B7B7B7"/>
<ellipse cx="8.0176" cy="7.90987" rx="8.0176" ry="7.90987" transform="matrix(0.180915 -0.983499 -0.986061 -0.166386 370.701 312.569)" fill="#B7B7B7"/>
<ellipse cx="6.73157" cy="11.0897" rx="6.73157" ry="11.0897" transform="matrix(-0.93906 -0.341877 -0.342167 0.940323 334.185 254.083)" fill="#B7B7B7"/>
<ellipse cx="8.02233" cy="7.90435" rx="8.02233" ry="7.90435" transform="matrix(-0.93906 -0.341877 -0.342167 0.940323 340.643 239.716)" fill="#B7B7B7"/>
<ellipse cx="31.7406" cy="43.8748" rx="31.7406" ry="43.8748" transform="matrix(-0.5 -0.866025 -0.866025 0.5 355.601 305.349)" fill="#B7B7B7"/>
<ellipse cx="59.5233" cy="169.684" rx="26.1803" ry="34.684" fill="#5DA26C"/>
<ellipse cx="26.1803" cy="34.684" rx="26.1803" ry="34.684" transform="matrix(-1 0 0 1 397.343 135)" fill="#5DA26C"/>
<ellipse cx="6.84594" cy="11.1561" rx="6.84594" ry="11.1561" transform="matrix(-0.699972 -0.699972 0.700586 -0.7275 330.697 211.073)" fill="#5DA26C"/>
<ellipse cx="328.178" cy="185.845" rx="6.81323" ry="11.2054" transform="matrix(-0.267859 -0.959842 0.967088 -0.267859 236.355 550.624)" fill="#5DA26C"/>
<ellipse cx="6.8275" cy="11.1867" rx="6.8275" ry="11.1867" transform="matrix(-0.948363 -0.254217 0.245062 -0.988311 349.9 216.186)" fill="#5DA26C"/>
<ellipse cx="26.6134" cy="34.1256" rx="26.6134" ry="34.1256" transform="matrix(-0.707107 -0.707107 0.693657 -0.720305 348.695 220.799)" fill="#5DA26C"/>
<ellipse cx="21.1922" cy="27.788" rx="21.1922" ry="27.788" transform="matrix(-0.707107 -0.707107 0.693657 -0.720305 350.621 211.695)" fill="#5DA26C"/>
<ellipse cx="4.87877" cy="4.92495" rx="4.87877" ry="4.92495" transform="matrix(0.481396 -0.881981 0.85941 0.502198 339.106 207.074)" fill="#5DA26C"/>
<ellipse cx="4.87877" cy="4.92495" rx="4.87877" ry="4.92495" transform="matrix(0.481396 -0.881981 0.85941 0.502198 319.591 187.558)" fill="#5DA26C"/>
<ellipse cx="4.87877" cy="4.92495" rx="4.87877" ry="4.92495" transform="matrix(0.481396 -0.881981 0.85941 0.502198 325.967 200.828)" fill="#5DA26C"/>
<ellipse cx="6.84594" cy="11.1561" rx="6.84594" ry="11.1561" transform="matrix(0.699972 -0.699972 0.7275 0.700586 4.9397 129.697)" fill="#5DA26C"/>
<ellipse cx="30.1677" cy="127.178" rx="6.81323" ry="11.2054" transform="matrix(0.963458 -0.266853 0.268868 0.963458 -33.0917 12.6977)" fill="#5DA26C"/>
<ellipse cx="6.8275" cy="11.1867" rx="6.8275" ry="11.1867" transform="matrix(0.254217 -0.948363 0.988311 0.245062 -0.17334 148.9)" fill="#5DA26C"/>
<ellipse cx="26.6134" cy="34.1256" rx="26.6134" ry="34.1256" transform="matrix(0.707107 -0.707107 0.720305 0.693657 -4.78613 147.695)" fill="#5DA26C"/>
<ellipse cx="21.1922" cy="27.788" rx="21.1922" ry="27.788" transform="matrix(0.707107 -0.707107 0.720305 0.693657 4.31726 149.621)" fill="#B7B7B7"/>
<ellipse cx="4.87877" cy="4.92495" rx="4.87877" ry="4.92495" transform="matrix(0.881981 0.481396 -0.502198 0.85941 8.93872 138.106)" fill="#B7B7B7"/>
<ellipse cx="4.87877" cy="4.92495" rx="4.87877" ry="4.92495" transform="matrix(0.881981 0.481396 -0.502198 0.85941 28.4541 118.591)" fill="#B7B7B7"/>
<ellipse cx="4.87877" cy="4.92495" rx="4.87877" ry="4.92495" transform="matrix(0.881981 0.481396 -0.502198 0.85941 15.1848 124.967)" fill="#B7B7B7"/>
</svg>
