<svg width="266" height="315" viewBox="0 0 266 315" fill="none" xmlns="http://www.w3.org/2000/svg">
<ellipse cx="133" cy="201" rx="120" ry="110" fill="#1E394A"/>
<ellipse cx="237.32" cy="179.04" rx="18.5" ry="51" transform="rotate(-25 237.32 179.04)" fill="#1E394A"/>
<ellipse cx="18.5" cy="51" rx="18.5" ry="51" transform="matrix(-0.906308 -0.422618 -0.422618 0.906308 66.6404 140.637)" fill="#1E394A"/>
<circle cx="133" cy="100" r="100" fill="#1E394A"/>
<ellipse cx="79.9999" cy="108" rx="35" ry="60" fill="#B6E4FF"/>
<ellipse cx="186" cy="108" rx="35" ry="60" fill="#B6E4FF"/>
<ellipse cx="133" cy="123" rx="70" ry="85" transform="rotate(-90 133 123)" fill="#B6E4FF"/>
<path d="M97.9999 33C97.9999 54.2173 101.687 74.5656 108.251 89.5685C114.815 104.571 123.717 113 133 113C142.283 113 151.185 104.571 157.749 89.5685C164.312 74.5656 168 54.2173 168 33L133 33L97.9999 33Z" fill="#1E394A"/>
<ellipse cx="79.8754" cy="73.2661" rx="16" ry="20" transform="rotate(-20 79.8754 73.2661)" fill="#1E394A"/>
<circle cx="82.9999" cy="71" r="9" fill="#E2F8FF"/>
<ellipse cx="16" cy="20" rx="16" ry="20" transform="matrix(-0.939693 -0.34202 -0.34202 0.939693 207.751 59.9446)" fill="#1E394A"/>
<circle cx="9" cy="9" r="9" transform="matrix(-1 0 0 1 191.751 62)" fill="#E2F8FF"/>
<circle cx="133" cy="200" r="100" transform="rotate(-90 133 200)" fill="#B6E4FF"/>
<path d="M128.779 82.1774C131.117 79.8634 134.883 79.8634 137.221 82.1774L152.94 97.7356C156.75 101.506 154.08 108 148.719 108H117.281C111.92 108 109.25 101.506 113.06 97.7355L128.779 82.1774Z" fill="#FF9E2F"/>
<path d="M179.583 293.367C181.638 291.943 184.361 291.943 186.417 293.367L201.862 304.068C206.696 307.417 204.326 315 198.445 315H167.555C161.674 315 159.304 307.417 164.138 304.068L179.583 293.367Z" fill="#FF9E2F"/>
<path d="M76.583 293.367C78.6384 291.943 81.3615 291.943 83.4169 293.367L98.862 304.068C103.696 307.417 101.326 315 95.4451 315H64.5548C58.6737 315 56.3036 307.417 61.1379 304.068L76.583 293.367Z" fill="#FF9E2F"/>
<rect x="116" y="103.971" width="24" height="24" rx="8" transform="rotate(-45 116 103.971)" fill="#FF9E2F"/>
</svg>
