<svg width="325" height="320" viewBox="0 0 325 320" fill="none" xmlns="http://www.w3.org/2000/svg">
<ellipse cx="159.08" cy="203" rx="120" ry="110" fill="#1E394A"/>
<ellipse cx="274.04" cy="138.954" rx="18.5" ry="51" transform="rotate(-130 274.04 138.954)" fill="#1E394A"/>
<ellipse cx="18.5" cy="51" rx="18.5" ry="51" transform="matrix(-0.906308 -0.422618 -0.422618 0.906308 92.7208 142.637)" fill="#1E394A"/>
<circle cx="159.08" cy="102" r="100" fill="#1E394A"/>
<ellipse cx="106.08" cy="110" rx="35" ry="60" fill="#B6E4FF"/>
<ellipse cx="212.08" cy="110" rx="35" ry="60" fill="#B6E4FF"/>
<ellipse cx="159.08" cy="125" rx="70" ry="85" transform="rotate(-90 159.08 125)" fill="#B6E4FF"/>
<path d="M124.08 35C124.08 56.2173 127.768 76.5656 134.332 91.5685C140.895 106.571 149.798 115 159.08 115C168.363 115 177.265 106.571 183.829 91.5685C190.393 76.5656 194.08 56.2173 194.08 35L159.08 35L124.08 35Z" fill="#1E394A"/>
<ellipse cx="105.956" cy="75.2661" rx="16" ry="20" transform="rotate(-20 105.956 75.2661)" fill="#1E394A"/>
<circle cx="109.08" cy="73" r="9" fill="#E2F8FF"/>
<ellipse cx="16" cy="20" rx="16" ry="20" transform="matrix(-0.939693 -0.34202 -0.34202 0.939693 233.831 61.9446)" fill="#1E394A"/>
<circle cx="9" cy="9" r="9" transform="matrix(-1 0 0 1 217.831 64)" fill="#E2F8FF"/>
<circle cx="159.08" cy="202" r="100" transform="rotate(-90 159.08 202)" fill="#B6E4FF"/>
<path d="M154.86 84.1774C157.198 81.8634 160.963 81.8634 163.301 84.1774L179.02 99.7356C182.83 103.506 180.16 110 174.8 110H143.361C138.001 110 135.33 103.506 139.14 99.7355L154.86 84.1774Z" fill="#FF9E2F"/>
<path d="M205.663 295.367C207.719 293.943 210.442 293.943 212.497 295.367L227.942 306.068C232.777 309.417 230.407 317 224.525 317H193.635C187.754 317 185.384 309.417 190.218 306.068L205.663 295.367Z" fill="#FF9E2F"/>
<path d="M102.663 295.367C104.719 293.943 107.442 293.943 109.497 295.367L124.942 306.068C129.777 309.417 127.407 317 121.525 317H90.6352C84.7541 317 82.384 309.417 87.2182 306.068L102.663 295.367Z" fill="#FF9E2F"/>
<rect x="142.08" y="105.971" width="24" height="24" rx="8" transform="rotate(-45 142.08 105.971)" fill="#FF9E2F"/>
</svg>
